<?xml version="1.0" encoding="UTF-8" standalone="no"?>
<svg
   xmlns:dc="http://purl.org/dc/elements/1.1/"
   xmlns:cc="http://creativecommons.org/ns#"
   xmlns:rdf="http://www.w3.org/1999/02/22-rdf-syntax-ns#"
   xmlns:svg="http://www.w3.org/2000/svg"
   xmlns="http://www.w3.org/2000/svg"
   xmlns:sodipodi="http://sodipodi.sourceforge.net/DTD/sodipodi-0.dtd"
   xmlns:inkscape="http://www.inkscape.org/namespaces/inkscape"
   id="Layer_1"
   data-name="Layer 1"
   viewBox="0 0 498.17 442.04"
   version="1.1"
   sodipodi:docname="icon-mask.svg"
   inkscape:version="0.92.5 (2060ec1f9f, 2020-04-08)">
  <metadata
     id="metadata15">
    <rdf:RDF>
      <cc:Work
         rdf:about="">
        <dc:format>image/svg+xml</dc:format>
        <dc:type
           rdf:resource="http://purl.org/dc/dcmitype/StillImage" />
        <dc:title></dc:title>
      </cc:Work>
    </rdf:RDF>
  </metadata>
  <sodipodi:namedview
     pagecolor="#000000"
     bordercolor="#666666"
     borderopacity="1"
     objecttolerance="10"
     gridtolerance="10"
     guidetolerance="10"
     inkscape:pageopacity="0.40392157"
     inkscape:pageshadow="2"
     inkscape:window-width="1920"
     inkscape:window-height="1017"
     id="namedview13"
     showgrid="false"
     inkscape:zoom="1.4990664"
     inkscape:cx="280.66474"
     inkscape:cy="234.93782"
     inkscape:window-x="1920"
     inkscape:window-y="0"
     inkscape:window-maximized="1"
     inkscape:current-layer="Layer_1" />
  <defs
     id="defs4">
    <style
       id="style2">.cls-1{fill:#fff;}</style>
    <style
       id="style70">.cls-1{fill:#fff;}</style>
  </defs>
  <path
     class="cls-1"
     d="m 263.28673,434.11753 a 44.696421,43.390149 0 0 0 4.24345,8.96475 H 1.1836263 V 346.06691 C 1.1836263,243.317 116.01847,242.06484 116.01847,242.06484 h 93.28111 a 41.013781,39.815135 0 0 0 -4.33691,8.11185 c -3.73872,9.07364 -7.47746,18.29246 -11.21617,27.2209 -3.27139,7.87594 -6.63624,16.00591 -9.88893,24.08144 -2.65448,0 -5.47721,0 -8.52428,0 -4.6734,0 -9.3468,0 -13.96412,0.10887 h -0.28041 c -18.15149,0.21777 -30.35841,11.23317 -30.35841,27.38425 a 27.367445,26.567621 0 0 0 9.08509,20.3431 32.246478,31.30406 0 0 0 21.29202,7.15003 c 5.27159,0 10.91706,0 17.31028,0 h 20.82467 c 15.70264,0 24.30171,-5.53492 30.56407,-19.47204 l 11.77698,34.28022 q 10.84227,31.3585 21.70327,62.84404 z"
     id="path6"
     inkscape:connector-curvature="0"
     style="stroke-width:1.84184206" />
  <circle
     class="cls-1"
     cx="57.642998"
     cy="215.42976"
     r="111.27174"
     transform="matrix(0.71751387,-0.69654422,0.71751387,0.69654422,0,0)"
     id="circle8"
     style="stroke-width:1.84224713" />
  <path
     class="cls-1"
     d="m 497.48027,314.03696 c 0.26171,7.89407 -6.00064,14.11859 -14.74925,14.663 a 7.7204609,7.494827 0 0 1 -2.075,0 c -15.60917,-3.17577 -25.18029,3.97425 -33.85412,16.06035 -11.83306,16.45958 -25.64764,31.53997 -38.45276,47.32811 -4.59862,5.68009 -9.87022,9.47288 -17.64676,7.62186 v 0 c -7.23444,-1.81473 -9.81415,-7.25892 -11.45919,-13.68304 Q 365.67163,332.7831 351.81966,279.57527 c -0.50473,-1.90546 -1.12161,-3.77464 -2.14976,-7.25892 -6.95402,25.40622 -13.49679,49.17914 -20.03955,72.98837 q -11.55265,42.01096 -23.14269,84.02192 c -2.57973,9.36399 -7.02881,13.46529 -14.48755,13.68305 h -0.61688 c -7.47745,0 -12.11347,-3.95612 -15.27268,-13.12048 q -21.3668,-62.17259 -42.75228,-124.38147 c -0.56083,-1.65141 -1.30856,-3.24836 -2.39279,-5.93416 -4.63602,11.0517 -8.82339,21.08715 -13.08553,31.14073 -4.26215,10.0536 -7.90739,12.48533 -18.69361,12.52163 -12.65557,0 -25.31116,0 -37.96673,0 -10.69274,0 -17.01118,-5.44419 -17.01118,-14.3908 0,-8.94661 6.28104,-14.15487 17.04857,-14.30005 8.72992,-0.10886 17.49722,-0.21777 26.17105,0 4.11261,0.14518 6.09413,-1.32476 7.47746,-5.04494 7.32789,-18.27431 15.06705,-36.40346 22.43232,-54.69591 2.74796,-6.87781 6.97272,-11.57798 14.95489,-11.79573 7.0101,-0.18148 12.00131,4.08313 14.95489,12.55792 q 19.64698,57.09134 39.25658,114.20083 a 16.020422,15.55222 0 0 0 3.73872,6.51488 q 7.73916,-27.87424 15.44092,-55.78475 9.3468,-34.24392 18.69362,-68.48784 5.21551,-19.0728 10.46842,-38.10927 c 2.56103,-9.38216 7.47744,-13.90083 15.17922,-13.84639 7.70176,0.0544 12.73034,4.70014 15.12312,13.93711 q 17.21682,66.85459 34.45232,133.70917 c 0.48603,1.81472 1.12161,3.62946 1.86937,6.38784 12.54341,-15.18928 24.73164,-29.41674 36.26559,-44.15233 5.60809,-7.07744 11.87045,-10.52542 21.1051,-9.83583 7.77653,0.56257 15.64655,0 23.46049,0.21776 8.86075,0.29035 15.01095,6.0612 15.17919,13.71935 z"
     id="path10"
     inkscape:connector-curvature="0"
     style="stroke-width:1.84184206" />
</svg>
