<?xml version="1.0" encoding="UTF-8" standalone="no"?>
<!-- Created with Inkscape (http://www.inkscape.org/) -->

<svg
   xmlns:dc="http://purl.org/dc/elements/1.1/"
   xmlns:cc="http://creativecommons.org/ns#"
   xmlns:rdf="http://www.w3.org/1999/02/22-rdf-syntax-ns#"
   xmlns:svg="http://www.w3.org/2000/svg"
   xmlns="http://www.w3.org/2000/svg"
   xmlns:sodipodi="http://sodipodi.sourceforge.net/DTD/sodipodi-0.dtd"
   xmlns:inkscape="http://www.inkscape.org/namespaces/inkscape"
   version="1.1"
   id="svg2"
   xml:space="preserve"
   width="664.22266"
   height="589.38934"
   viewBox="0 0 664.22266 589.38934"
   sodipodi:docname="activity.svg"
   inkscape:version="0.92.5 (2060ec1f9f, 2020-04-08)"><metadata
     id="metadata8"><rdf:RDF><cc:Work
         rdf:about=""><dc:format>image/svg+xml</dc:format><dc:type
           rdf:resource="http://purl.org/dc/dcmitype/StillImage" /><dc:title></dc:title></cc:Work></rdf:RDF></metadata><defs
     id="defs6"><clipPath
       clipPathUnits="userSpaceOnUse"
       id="clipPath18"><path
         d="M 0,442.042 H 498.167 V 0 H 0 Z"
         id="path16"
         inkscape:connector-curvature="0" /></clipPath><clipPath
       clipPathUnits="userSpaceOnUse"
       id="clipPath26"><path
         d="M 115.091,381.22 H 384.162 V 51.4015 H 115.091 Z"
         id="path24"
         inkscape:connector-curvature="0" /></clipPath><clipPath
       clipPathUnits="userSpaceOnUse"
       id="clipPath30"><path
         d="m 230.344,381.22 h 33.973 v -13.229 h -33.973 z"
         id="path28"
         inkscape:connector-curvature="0" /></clipPath><clipPath
       clipPathUnits="userSpaceOnUse"
       id="clipPath34"><path
         d="m 230.344,367.991 14.362,8.571 c 5.644,3.369 12.37,5.077 19.611,4.571 l -14.362,-8.571 c -7.241,0.506 -13.967,-1.202 -19.611,-4.571"
         id="path32"
         inkscape:connector-curvature="0" /></clipPath><clipPath
       clipPathUnits="userSpaceOnUse"
       id="clipPath38"><path
         d="m 230.344,381.22 h 33.973 v -13.229 h -33.973 z"
         id="path36"
         inkscape:connector-curvature="0" /></clipPath><clipPath
       clipPathUnits="userSpaceOnUse"
       id="clipPath42"><path
         d="m 249.955,381.133 h 52.191 v -66.822 h -52.191 z"
         id="path40"
         inkscape:connector-curvature="0" /></clipPath><clipPath
       clipPathUnits="userSpaceOnUse"
       id="clipPath46"><path
         d="m 249.955,372.562 14.362,8.571 c 14.559,-1.018 27.335,-10.71 33.626,-23.921 2.564,-5.353 4.076,-11.289 4.195,-17.434 0.119,-6.154 -1.143,-11.896 -3.499,-16.896 l -14.362,-8.571 c 2.356,5.001 3.618,10.742 3.499,16.896 -0.119,6.145 -1.631,12.081 -4.196,17.434 -6.29,13.212 -19.066,22.903 -33.625,23.921"
         id="path44"
         inkscape:connector-curvature="0" /></clipPath><clipPath
       clipPathUnits="userSpaceOnUse"
       id="clipPath50"><path
         d="m 249.955,381.133 h 52.191 v -66.822 h -52.191 z"
         id="path48"
         inkscape:connector-curvature="0" /></clipPath><clipPath
       clipPathUnits="userSpaceOnUse"
       id="clipPath54"><path
         d="m 313.575,264.986 h 69.224 V 122.037 h -69.224 z"
         id="path52"
         inkscape:connector-curvature="0" /></clipPath><clipPath
       clipPathUnits="userSpaceOnUse"
       id="clipPath58"><path
         d="m 345.131,256.415 14.362,8.571 c -19.399,-11.577 -32.044,-33.577 -31.541,-59.601 0.664,-34.388 24.062,-64.913 54.847,-74.778 l -14.363,-8.57 c -30.784,9.864 -54.183,40.389 -54.846,74.777 -0.503,26.024 12.142,48.024 31.541,59.601"
         id="path56"
         inkscape:connector-curvature="0" /></clipPath><clipPath
       clipPathUnits="userSpaceOnUse"
       id="clipPath62"><path
         d="m 313.575,264.986 h 69.224 V 122.037 h -69.224 z"
         id="path60"
         inkscape:connector-curvature="0" /></clipPath><clipPath
       clipPathUnits="userSpaceOnUse"
       id="clipPath202"><path
         d="M 154.012,271.864 H 302.501 V 121.54 H 154.012 Z"
         id="path200"
         inkscape:connector-curvature="0" /></clipPath><clipPath
       clipPathUnits="userSpaceOnUse"
       id="clipPath206"><path
         d="m 156.717,131.734 -2.705,140.13 145.784,-10.194 2.705,-140.13 z"
         id="path204"
         inkscape:connector-curvature="0" /></clipPath></defs><sodipodi:namedview
     pagecolor="#ffffff"
     bordercolor="#666666"
     borderopacity="1"
     objecttolerance="10"
     gridtolerance="10"
     guidetolerance="10"
     inkscape:pageopacity="0"
     inkscape:pageshadow="2"
     inkscape:window-width="1261"
     inkscape:window-height="764"
     id="namedview4"
     showgrid="false"
     inkscape:zoom="0.78"
     inkscape:cx="250.70107"
     inkscape:cy="294.69467"
     inkscape:window-x="289"
     inkscape:window-y="176"
     inkscape:window-maximized="0"
     inkscape:current-layer="g10" /><g
     id="g10"
     inkscape:groupmode="layer"
     inkscape:label="Web Puzzlers Icons"
     transform="matrix(1.3333333,0,0,-1.3333333,0,589.38933)"><g
       id="g12"
       transform="matrix(1.3843701,0,0,1.3338718,-95.948939,-66.931573)"><g
         id="g14"
         clip-path="url(#clipPath18)"><g
           id="g20"><g
             id="g22" /><g
             id="g194"><g
               clip-path="url(#clipPath26)"
               id="g192"><g
                 transform="translate(115.0907,326.142)"
                 id="g66"><path
                   d="M 0,0 14.362,8.571 117.047,1.391 102.685,-7.18 Z"
                   style="fill:#011f49;fill-opacity:1;fill-rule:nonzero;stroke:none"
                   id="path64"
                   inkscape:connector-curvature="0" /></g><g
                 transform="translate(368.4365,122.0365)"
                 id="g70"><path
                   d="M 0,0 14.362,8.571 15.726,-62.064 1.364,-70.635 Z"
                   style="fill:#011b40;fill-opacity:1;fill-rule:nonzero;stroke:none"
                   id="path68"
                   inkscape:connector-curvature="0" /></g><g
                 id="g118"><g
                   id="g72" /><g
                   id="g116"><g
                     clip-path="url(#clipPath30)"
                     id="g114"><g
                       id="g112"><g
                         clip-path="url(#clipPath34)"
                         id="g110"><g
                           id="g108"><g
                             id="g74" /><g
                             id="g106"><g
                               clip-path="url(#clipPath38)"
                               id="g104"><g
                                 transform="translate(230.3438,367.9913)"
                                 id="g78"><path
                                   d="m 0,0 14.362,8.571 c 0.097,0.058 0.195,0.115 0.292,0.172 L 0.292,0.172 C 0.194,0.115 0.097,0.058 0,0"
                                   style="fill:#022557;fill-opacity:1;fill-rule:nonzero;stroke:none"
                                   id="path76"
                                   inkscape:connector-curvature="0" /></g><g
                                 transform="translate(230.6359,368.1635)"
                                 id="g82"><path
                                   d="m 0,0 14.362,8.571 c 1.239,0.722 2.529,1.365 3.864,1.922 L 3.864,1.922 C 2.529,1.365 1.239,0.722 0,0"
                                   style="fill:#022454;fill-opacity:1;fill-rule:nonzero;stroke:none"
                                   id="path80"
                                   inkscape:connector-curvature="0" /></g><g
                                 transform="translate(234.5,370.0859)"
                                 id="g86"><path
                                   d="m 0,0 14.362,8.571 c 1.184,0.494 2.404,0.922 3.655,1.278 L 3.655,1.278 C 2.404,0.922 1.184,0.494 0,0"
                                   style="fill:#022351;fill-opacity:1;fill-rule:nonzero;stroke:none"
                                   id="path84"
                                   inkscape:connector-curvature="0" /></g><g
                                 transform="translate(238.1545,371.3644)"
                                 id="g90"><path
                                   d="m 0,0 14.362,8.571 c 1.177,0.335 2.382,0.608 3.611,0.814 L 3.611,0.814 C 2.382,0.608 1.177,0.335 0,0"
                                   style="fill:#02224f;fill-opacity:1;fill-rule:nonzero;stroke:none"
                                   id="path88"
                                   inkscape:connector-curvature="0" /></g><g
                                 transform="translate(241.7657,372.1789)"
                                 id="g94"><path
                                   d="m 0,0 14.362,8.571 c 1.21,0.203 2.444,0.342 3.699,0.414 L 3.699,0.414 C 2.444,0.342 1.21,0.203 0,0"
                                   style="fill:#02204d;fill-opacity:1;fill-rule:nonzero;stroke:none"
                                   id="path92"
                                   inkscape:connector-curvature="0" /></g><g
                                 transform="translate(245.4643,372.5928)"
                                 id="g98"><path
                                   d="m 0,0 14.362,8.571 c 1.298,0.074 2.618,0.076 3.956,0.002 L 3.955,0.002 C 2.618,0.076 1.298,0.074 0,0"
                                   style="fill:#011f4a;fill-opacity:1;fill-rule:nonzero;stroke:none"
                                   id="path96"
                                   inkscape:connector-curvature="0" /></g><g
                                 transform="translate(249.4196,372.5953)"
                                 id="g102"><path
                                   d="M 0,0 14.362,8.571 C 14.54,8.561 14.719,8.55 14.898,8.537 L 0.535,-0.033 C 0.357,-0.021 0.178,-0.01 0,0"
                                   style="fill:#011e48;fill-opacity:1;fill-rule:nonzero;stroke:none"
                                   id="path100"
                                   inkscape:connector-curvature="0" /></g></g></g></g></g></g></g></g></g><g
                 id="g150"><g
                   id="g120" /><g
                   id="g148"><g
                     clip-path="url(#clipPath42)"
                     id="g146"><g
                       id="g144"><g
                         clip-path="url(#clipPath46)"
                         id="g142"><g
                           id="g140"><g
                             id="g122" /><g
                             id="g138"><g
                               clip-path="url(#clipPath50)"
                               id="g136"><g
                                 transform="translate(249.955,372.5618)"
                                 id="g126"><path
                                   d="M 0,0 14.362,8.571 C 15.662,8.48 16.947,8.32 18.215,8.095 L 3.853,-0.476 C 2.585,-0.251 1.3,-0.091 0,0"
                                   style="fill:#011e48;fill-opacity:1;fill-rule:nonzero;stroke:none"
                                   id="path124"
                                   inkscape:connector-curvature="0" /></g><g
                                 transform="translate(253.8078,372.0855)"
                                 id="g130"><path
                                   d="M 0,0 14.362,8.571 C 16.143,8.254 17.89,7.808 19.592,7.244 L 5.23,-1.327 C 3.527,-0.763 1.781,-0.317 0,0"
                                   style="fill:#011c45;fill-opacity:1;fill-rule:nonzero;stroke:none"
                                   id="path128"
                                   inkscape:connector-curvature="0" /></g><g
                                 transform="translate(259.0377,370.7582)"
                                 id="g134"><path
                                   d="M 0,0 14.362,8.571 C 25.025,5.034 33.965,-3.171 38.905,-13.547 41.469,-18.9 42.982,-24.835 43.1,-30.98 c 0.119,-6.154 -1.143,-11.896 -3.499,-16.896 l -14.362,-8.571 c 2.356,5 3.618,10.742 3.499,16.896 -0.119,6.145 -1.631,12.081 -4.195,17.433 C 19.603,-11.742 10.663,-3.537 0,0"
                                   style="fill:#011b42;fill-opacity:1;fill-rule:nonzero;stroke:none"
                                   id="path132"
                                   inkscape:connector-curvature="0" /></g></g></g></g></g></g></g></g></g><g
                 id="g178"><g
                   id="g152" /><g
                   id="g176"><g
                     clip-path="url(#clipPath54)"
                     id="g174"><g
                       id="g172"><g
                         clip-path="url(#clipPath58)"
                         id="g170"><g
                           id="g168"><g
                             id="g154" /><g
                             id="g166"><g
                               clip-path="url(#clipPath62)"
                               id="g164"><g
                                 transform="translate(345.1312,256.4147)"
                                 id="g158"><path
                                   d="M 0,0 14.362,8.571 C -5.037,-3.006 -17.682,-25.006 -17.179,-51.03 c 0.658,-34.131 23.714,-64.456 54.158,-74.553 l -14.362,-8.571 c -30.444,10.097 -53.5,40.422 -54.159,74.553 C -32.044,-33.577 -19.399,-11.577 0,0"
                                   style="fill:#011b42;fill-opacity:1;fill-rule:nonzero;stroke:none"
                                   id="path156"
                                   inkscape:connector-curvature="0" /></g><g
                                 transform="translate(367.7479,122.261)"
                                 id="g162"><path
                                   d="M 0,0 14.362,8.571 C 14.591,8.495 14.821,8.42 15.051,8.346 L 0.689,-0.225 C 0.459,-0.151 0.229,-0.076 0,0"
                                   style="fill:#011c45;fill-opacity:1;fill-rule:nonzero;stroke:none"
                                   id="path160"
                                   inkscape:connector-curvature="0" /></g></g></g></g></g></g></g></g></g><g
                 transform="translate(249.955,372.5618)"
                 id="g182"><path
                   d="m 0,0 c 14.559,-1.018 27.335,-10.709 33.625,-23.921 2.565,-5.353 4.077,-11.289 4.196,-17.434 0.118,-6.153 -1.144,-11.895 -3.5,-16.895 l 80.558,-5.634 0.86,-44.547 c -30.487,-5.581 -52.768,-32.937 -52.104,-67.317 0.663,-34.388 24.062,-64.912 54.846,-74.777 l 1.364,-70.635 -208.002,14.545 c -23.058,1.612 -42.118,22.466 -42.584,46.581 l -4.123,213.614 102.685,-7.18 c -2.564,5.344 -4.043,11.278 -4.162,17.431 -0.119,6.145 1.16,11.886 3.524,16.894 C -27.02,-6.908 -14.551,1.017 0,0"
                   style="fill:#032c61;fill-opacity:1;fill-rule:nonzero;stroke:none"
                   id="path180"
                   inkscape:connector-curvature="0" /></g><g
                 transform="translate(364.8336,308.6783)"
                 id="g186"><path
                   d="M 0,0 14.362,8.571 15.222,-35.977 0.86,-44.548 Z"
                   style="fill:#011b40;fill-opacity:1;fill-rule:nonzero;stroke:none"
                   id="path184"
                   inkscape:connector-curvature="0" /></g><g
                 transform="translate(284.2765,314.3113)"
                 id="g190"><path
                   d="M 0,0 14.362,8.571 94.919,2.938 80.557,-5.633 Z"
                   style="fill:#011f49;fill-opacity:1;fill-rule:nonzero;stroke:none"
                   id="path188"
                   inkscape:connector-curvature="0" /></g></g></g></g><g
           id="g196"><g
             id="g198" /><g
             id="g226"><g
               clip-path="url(#clipPath202)"
               id="g224"><g
                 id="g222"><g
                   clip-path="url(#clipPath206)"
                   id="g220"><g
                     transform="translate(216.6252,191.0813)"
                     id="g210"><path
                       d="m 0,0 -27.409,1.917 c 0,0 -33.72,1.955 -33.092,-30.558 l 0.593,-30.706 78.235,-5.471 c -0.563,0.967 -0.984,1.977 -1.296,2.927 -2.248,6.784 -4.497,13.568 -6.745,20.352 -1.219,3.701 -2.445,7.393 -3.663,11.094 -1.734,-4.283 -4.248,-5.84 -8.858,-5.535 -2.045,0.134 -4.082,0.268 -6.118,0.41 -1.878,0.131 -3.538,0.256 -5.089,0.373 -2.498,0.201 -4.675,1.133 -6.296,2.699 -1.749,1.698 -2.748,4.053 -2.798,6.621 -0.099,5.12 3.421,8.349 8.751,8.046 l 0.092,-0.006 c 1.332,-0.076 2.724,-0.156 4.098,-0.252 0.897,-0.063 1.718,-0.12 2.498,-0.192 0.915,2.492 1.846,4.992 2.762,7.414 1.026,2.747 2.093,5.588 3.11,8.388 C -0.875,-1.506 -0.464,-0.685 0,0"
                       style="fill:#ffffff;fill-opacity:1;fill-rule:nonzero;stroke:none"
                       id="path208"
                       inkscape:connector-curvature="0" /></g><g
                     transform="translate(211.2173,267.8643)"
                     id="g214"><path
                       d="m 0,0 c -18.314,1.281 -32.867,-13.205 -32.497,-32.367 0.37,-19.153 15.522,-35.725 33.836,-37.006 18.314,-1.28 32.867,13.214 32.497,32.367 C 33.466,-17.843 18.314,-1.281 0,0"
                       style="fill:#ffffff;fill-opacity:1;fill-rule:nonzero;stroke:none"
                       id="path212"
                       inkscape:connector-curvature="0" /></g><g
                     transform="translate(257.7258,201.4697)"
                     id="g218"><path
                       d="m 0,0 c -2.215,0.155 -3.641,-1.182 -4.334,-4.074 -0.945,-3.952 -1.89,-7.913 -2.843,-11.873 l -5.088,-21.284 c -1.387,-5.786 -2.799,-11.561 -4.194,-17.337 -0.642,0.71 -0.906,1.42 -1.146,2.137 -4.08,12.322 -8.143,24.634 -12.223,36.947 -0.887,2.683 -2.335,4.131 -4.326,4.27 -0.045,0.004 -0.089,0.006 -0.134,0.008 -2.337,0.102 -3.549,-1.301 -4.32,-3.427 -2.042,-5.635 -4.203,-11.209 -6.246,-16.844 -0.395,-1.095 -0.934,-1.531 -2.046,-1.453 -0.05,0.004 -0.1,0.008 -0.152,0.014 -1.113,0.115 -2.226,0.206 -3.338,0.284 -1.454,0.102 -2.908,0.181 -4.366,0.263 -3.159,0.186 -4.97,-1.377 -4.916,-4.173 0.054,-2.797 1.94,-4.653 5.083,-4.899 1.687,-0.134 3.371,-0.257 5.055,-0.374 2.034,-0.143 4.067,-0.277 6.102,-0.415 3.143,-0.202 4.233,0.536 5.396,3.579 1.171,3.096 2.342,6.183 3.632,9.586 0.343,-0.873 0.563,-1.387 0.74,-1.925 4.445,-13.416 8.88,-26.83 13.324,-40.237 0.987,-2.967 2.369,-4.315 4.565,-4.469 l 0.185,-0.013 c 2.186,-0.082 3.468,1.123 4.174,4.033 2.1,8.703 4.184,17.417 6.275,26.121 1.783,7.395 3.557,14.799 5.447,22.686 0.323,-1.108 0.519,-1.717 0.673,-2.332 2.907,-11.409 5.831,-22.827 8.705,-34.251 0.525,-2.067 1.314,-3.864 3.453,-4.557 l 0.008,-0.009 c 0.4,-0.13 0.776,-0.204 1.132,-0.229 1.692,-0.118 2.924,0.877 4.01,2.277 3.667,4.733 7.632,9.227 11.001,14.191 2.085,3.067 4.368,5.009 7.773,4.77 0.65,-0.045 1.341,-0.17 2.078,-0.382 0.069,-0.02 0.141,-0.03 0.213,-0.036 0.133,-0.009 0.269,0 0.399,0.002 2.562,-0.012 4.359,1.832 4.235,4.335 -0.114,2.433 -1.934,4.381 -4.45,4.636 -0.435,0.042 -0.871,0.077 -1.306,0.108 -0.529,0.037 -1.057,0.067 -1.586,0.094 -0.545,0.031 -1.089,0.061 -1.632,0.099 -0.791,0.055 -1.58,0.128 -2.367,0.251 -0.23,0.034 -0.452,0.059 -0.67,0.074 -2.358,0.165 -4.023,-0.802 -5.472,-2.752 -3.297,-4.427 -6.789,-8.682 -10.384,-13.228 -0.26,0.876 -0.455,1.467 -0.609,2.056 -3.65,14.34 -7.292,28.68 -10.942,43.02 C 3.816,-1.755 2.304,-0.179 0.04,-0.003 0.027,-0.002 0.014,-0.001 0,0"
                       style="fill:#ffffff;fill-opacity:1;fill-rule:nonzero;stroke:none"
                       id="path216"
                       inkscape:connector-curvature="0" /></g></g></g></g></g></g></g></g></g></svg>